# xmcd
#
# Track frame offsets:
#	150
#	16576
#	45735
#	59272
#	80451
#	94354
#	114709
#	129833
#	151788
#	172097
#	200747
#	214174
#	228739
#	237027
#	266746
#	287584
#	296791
#	323056
#
# Disc length: 4458 seconds
#
# Revision: 1
# Processed by: cddbd v1.5.1PL2 Copyright (c) Steve Scherf et al.
# Submitted via: audiograbber 1.83.01
#
DISCID=04116812
DTITLE=Tom Waits - The Black Rider
DYEAR=1993
DGENRE=
TTITLE0=Lucky Day Overture
TTITLE1=The Black Rider
TTITLE2=November
TTITLE3=Just The Right Black Box Theme
TTITLE4=It Ain't Ni Sim
TTITLE5=Flash Pan Hunter/Intro
TTITLE6=That's The Way
TTITLE7=The Briar And The Rose
TTITLE8=Russian Dance
TTITLE9=Gospel Train (Orchestra)
TTITLE10=I'll Shoot The Moon
TTITLE11=Flash Pan Hunter
TTITLE12=Crossroad
TTITLE13=Gospel Train
TTITLE14=Interlude
TTITLE15=Oily Night
TTITLE16=Lucky Day
TTITLE17=The Last Rose Of Summer
EXTD=
EXTT0=
EXTT1=
EXTT2=
EXTT3=
EXTT4=
EXTT5=
EXTT6=
EXTT7=
EXTT8=
EXTT9=
EXTT10=
EXTT11=
EXTT12=
EXTT13=
EXTT14=
EXTT15=
EXTT16=
EXTT17=
PLAYORDER=
